# xmcd CD database file
#
# Track frame offsets:
#	187
#	14655
#	28540
#	42197
#	59702
#	80300
#	93935
#	110117
#	124477
#	140645
#	157080
#	177060
#	189665
#
# Disc length: 2767 seconds
#
# Revision: 1
# Processed by: cddbd v1.5.2PL0 Copyright (c) Steve Scherf et al.
# Submitted via: CDex 1.51
#
DISCID=b90acd0d
DTITLE=Alabama - Southern Star
DYEAR=1988
DGENRE=Country
TTITLE0=Song Of The South
TTITLE1=Down On The River
TTITLE2=High Cotton
TTITLE3="Ole" Baugh Road
TTITLE4=The Borderline
TTITLE5=I'm Still Dreamin'
TTITLE6=Pete's Music City
TTITLE7=Southern Star
TTITLE8=If I Had You
TTITLE9=She Can
TTITLE10=I Showed Her
TTITLE11=Barefootin'
TTITLE12=Dixie Fire
EXTD=(c)1988 BMG Music/RCA\nupc 0035628858726 YEAR: 1988
EXTT0=
EXTT1=
EXTT2=
EXTT3=
EXTT4=
EXTT5=
EXTT6=
EXTT7=
EXTT8=
EXTT9=
EXTT10=
EXTT11=
EXTT12=
PLAYORDER=
